<svg width="16" height="8" viewBox="0 0 16 8" fill="none" xmlns="http://www.w3.org/2000/svg">
<path d="M0.5 1C0.5 0.801088 0.579018 0.610322 0.71967 0.46967C0.860322 0.329018 1.05109 0.25 1.25 0.25H14.75C14.9489 0.25 15.1397 0.329018 15.2803 0.46967C15.421 0.610322 15.5 0.801088 15.5 1C15.5 1.19891 15.421 1.38968 15.2803 1.53033C15.1397 1.67098 14.9489 1.75 14.75 1.75H1.25C1.05109 1.75 0.860322 1.67098 0.71967 1.53033C0.579018 1.38968 0.5 1.19891 0.5 1Z" fill="#00C853"/>
<path d="M0.5 4C0.5 3.80109 0.579018 3.61032 0.71967 3.46967C0.860322 3.32902 1.05109 3.25 1.25 3.25H14.75C14.9489 3.25 15.1397 3.32902 15.2803 3.46967C15.421 3.61032 15.5 3.80109 15.5 4C15.5 4.19891 15.421 4.38968 15.2803 4.53033C15.1397 4.67098 14.9489 4.75 14.75 4.75H1.25C1.05109 4.75 0.860322 4.67098 0.71967 4.53033C0.579018 4.38968 0.5 4.19891 0.5 4Z" fill="#00C853"/>
<path d="M1.25 6.25C1.05109 6.25 0.860322 6.32902 0.71967 6.46967C0.579018 6.61032 0.5 6.80109 0.5 7C0.5 7.19891 0.579018 7.38968 0.71967 7.53033C0.860322 7.67098 1.05109 7.75 1.25 7.75H10.25C10.4489 7.75 10.6397 7.67098 10.7803 7.53033C10.921 7.38968 11 7.19891 11 7C11 6.80109 10.921 6.61032 10.7803 6.46967C10.6397 6.32902 10.4489 6.25 10.25 6.25H1.25Z" fill="#00C853"/>
</svg>
