<svg width="30" height="24" viewBox="0 0 30 24" fill="none" xmlns="http://www.w3.org/2000/svg">
<path d="M20.3766 3H16.35C15.975 3 15.6141 3.14063 15.3375 3.39375L10.7297 7.6125C10.725 7.61719 10.7203 7.62656 10.7156 7.63125C9.9375 8.3625 9.95156 9.52969 10.6172 10.2562C11.2125 10.9078 12.4641 11.0812 13.2469 10.3828C13.2516 10.3781 13.2609 10.3781 13.2656 10.3734L17.0109 6.94219C17.3156 6.66563 17.7938 6.68438 18.0703 6.98906C18.3516 7.29375 18.3281 7.76719 18.0234 8.04844L16.8 9.16875L23.625 14.7094C23.7609 14.8219 23.8828 14.9437 23.9953 15.0703V6L21.4359 3.44063C21.1594 3.15938 20.775 3 20.3766 3ZM25.5 6.00937V16.5047C25.5 17.3344 26.1703 18.0047 27 18.0047H30V6.00937H25.5ZM27.75 16.5047C27.3375 16.5047 27 16.1672 27 15.7547C27 15.3422 27.3375 15.0047 27.75 15.0047C28.1625 15.0047 28.5 15.3422 28.5 15.7547C28.5 16.1672 28.1625 16.5047 27.75 16.5047ZM0 18H3C3.82969 18 4.5 17.3297 4.5 16.5V6.00937H0V18ZM2.25 15.0047C2.6625 15.0047 3 15.3422 3 15.7547C3 16.1672 2.6625 16.5047 2.25 16.5047C1.8375 16.5047 1.5 16.1672 1.5 15.7547C1.5 15.3375 1.8375 15.0047 2.25 15.0047ZM22.6828 15.8766L15.6844 10.1953L14.2781 11.4844C12.8859 12.7547 10.7531 12.6328 9.51094 11.2781C8.25 9.9 8.34844 7.76719 9.71719 6.51094L13.5516 3H9.62344C9.225 3 8.84531 3.15938 8.56406 3.44063L6 6V16.4953H6.85781L11.1 20.3344C12.3844 21.3797 14.2734 21.1828 15.3187 19.8984L15.3281 19.8891L16.1672 20.6156C16.9125 21.225 18.0141 21.1078 18.6188 20.3625L20.0906 18.5531L20.3438 18.7594C20.9859 19.2797 21.9328 19.1859 22.4531 18.5391L22.8984 17.9906C23.4234 17.3437 23.325 16.4016 22.6828 15.8766Z" fill="#304FFE"/>
</svg>
