<svg width="35" height="33" viewBox="0 0 35 33" fill="none" xmlns="http://www.w3.org/2000/svg">
<path d="M4.53991 5.02624V0.521484H7.54308V5.02624H12.0478V8.02941H7.54308V12.5342H4.53991V8.02941H0.0351562V5.02624H4.53991ZM9.04467 14.0358V9.531H13.5494V5.02624H24.0605L26.8084 8.02941H31.5685C33.2202 8.02941 34.5716 9.38084 34.5716 11.0326V29.0516C34.5716 30.7034 33.2202 32.0548 31.5685 32.0548H7.54308C5.89134 32.0548 4.53991 30.7034 4.53991 29.0516V14.0358H9.04467ZM19.5558 27.55C23.7001 27.55 27.0637 24.1865 27.0637 20.0421C27.0637 15.8977 23.7001 12.5342 19.5558 12.5342C15.4114 12.5342 12.0478 15.8977 12.0478 20.0421C12.0478 24.1865 15.4114 27.55 19.5558 27.55ZM14.7507 20.0421C14.7507 22.6999 16.898 24.8472 19.5558 24.8472C22.2136 24.8472 24.3608 22.6999 24.3608 20.0421C24.3608 17.3843 22.2136 15.237 19.5558 15.237C16.898 15.237 14.7507 17.3843 14.7507 20.0421Z" fill="black"/>
</svg>
