<svg width="18" height="18" viewBox="0 0 18 18" fill="none" xmlns="http://www.w3.org/2000/svg">
<path d="M9 0C4.02945 0 0 4.02945 0 9C0 13.9705 4.02945 18 9 18C13.9705 18 18 13.9705 18 9C18 4.02945 13.9705 0 9 0ZM9 1.95556C12.8905 1.95556 16.0433 5.11044 16.0433 9C16.0433 12.8896 12.8905 16.0433 9 16.0433C5.10945 16.0433 1.95666 12.8896 1.95666 9C1.95667 5.11044 5.10945 1.95556 9 1.95556ZM12.4486 4.72632L7.2323 9.94372L5.5404 8.25183L3.88037 9.91077L5.57226 11.6027L7.24328 13.2737L8.90223 11.6136L14.1196 6.39734L12.4486 4.72632Z" fill="#00C853"/>
</svg>
