<svg width="360" height="10" viewBox="0 0 360 10" fill="none" xmlns="http://www.w3.org/2000/svg">
<path d="M5 5H0V0H5V5Z" fill="black"/>
<path d="M10 10H5V5H10V10Z" fill="black"/>
<path d="M15 5H10V0H15V5Z" fill="black"/>
<path d="M20 10H15V5H20V10Z" fill="black"/>
<path d="M25 5H20V0H25V5Z" fill="black"/>
<path d="M30 10H25V5H30V10Z" fill="black"/>
<path d="M35 5H30V0H35V5Z" fill="black"/>
<path d="M40 10H35V5H40V10Z" fill="black"/>
<path d="M45 5H40V0H45V5Z" fill="black"/>
<path d="M50 10H45V5H50V10Z" fill="black"/>
<path d="M55 5H50V0H55V5Z" fill="black"/>
<path d="M60 10H55V5H60V10Z" fill="black"/>
<path d="M65 5H60V0H65V5Z" fill="black"/>
<path d="M70 10H65V5H70V10Z" fill="black"/>
<path d="M75 5H70V0H75V5Z" fill="black"/>
<path d="M80 10H75V5H80V10Z" fill="black"/>
<path d="M85 5H80V0H85V5Z" fill="black"/>
<path d="M90 10H85V5H90V10Z" fill="black"/>
<path d="M95 5H90V0H95V5Z" fill="black"/>
<path d="M100 10H95V5H100V10Z" fill="black"/>
<path d="M105 5H100V0H105V5Z" fill="black"/>
<path d="M110 10H105V5H110V10Z" fill="black"/>
<path d="M115 5H110V0H115V5Z" fill="black"/>
<path d="M120 10H115V5H120V10Z" fill="black"/>
<path d="M125 5H120V0H125V5Z" fill="black"/>
<path d="M130 10H125V5H130V10Z" fill="black"/>
<path d="M135 5H130V0H135V5Z" fill="black"/>
<path d="M140 10H135V5H140V10Z" fill="black"/>
<path d="M145 5H140V0H145V5Z" fill="black"/>
<path d="M150 10H145V5H150V10Z" fill="black"/>
<path d="M155 5H150V0H155V5Z" fill="black"/>
<path d="M160 10H155V5H160V10Z" fill="black"/>
<path d="M165 5H160V0H165V5Z" fill="black"/>
<path d="M170 10H165V5H170V10Z" fill="black"/>
<path d="M175 5H170V0H175V5Z" fill="black"/>
<path d="M180 10H175V5H180V10Z" fill="black"/>
<path d="M185 5H180V0H185V5Z" fill="black"/>
<path d="M190 10H185V5H190V10Z" fill="black"/>
<path d="M195 5H190V0H195V5Z" fill="black"/>
<path d="M200 10H195V5H200V10Z" fill="black"/>
<path d="M205 5H200V0H205V5Z" fill="black"/>
<path d="M210 10H205V5H210V10Z" fill="black"/>
<path d="M215 5H210V0H215V5Z" fill="black"/>
<path d="M220 10H215V5H220V10Z" fill="black"/>
<path d="M225 5H220V0H225V5Z" fill="black"/>
<path d="M230 10H225V5H230V10Z" fill="black"/>
<path d="M235 5H230V0H235V5Z" fill="black"/>
<path d="M240 10H235V5H240V10Z" fill="black"/>
<path d="M245 5H240V0H245V5Z" fill="black"/>
<path d="M250 10H245V5H250V10Z" fill="black"/>
<path d="M255 5H250V0H255V5Z" fill="black"/>
<path d="M260 10H255V5H260V10Z" fill="black"/>
<path d="M265 5H260V0H265V5Z" fill="black"/>
<path d="M270 10H265V5H270V10Z" fill="black"/>
<path d="M275 5H270V0H275V5Z" fill="black"/>
<path d="M280 10H275V5H280V10Z" fill="black"/>
<path d="M285 5H280V0H285V5Z" fill="black"/>
<path d="M290 10H285V5H290V10Z" fill="black"/>
<path d="M295 5H290V0H295V5Z" fill="black"/>
<path d="M300 10H295V5H300V10Z" fill="black"/>
<path d="M305 5H300V0H305V5Z" fill="black"/>
<path d="M310 10H305V5H310V10Z" fill="black"/>
<path d="M315 5H310V0H315V5Z" fill="black"/>
<path d="M320 10H315V5H320V10Z" fill="black"/>
<path d="M325 5H320V0H325V5Z" fill="black"/>
<path d="M330 10H325V5H330V10Z" fill="black"/>
<path d="M335 5H330V0H335V5Z" fill="black"/>
<path d="M340 10H335V5H340V10Z" fill="black"/>
<path d="M345 5H340V0H345V5Z" fill="black"/>
<path d="M350 10H345V5H350V10Z" fill="black"/>
<path d="M355 5H350V0H355V5Z" fill="black"/>
<path d="M360 10H355V5H360V10Z" fill="black"/>
</svg>
