<svg width="10" height="11" viewBox="0 0 10 11" fill="none" xmlns="http://www.w3.org/2000/svg">
<path d="M2.94531 0.914062H2.84375C2.89961 0.914062 2.94531 0.868359 2.94531 0.8125V0.914062H6.80469V0.8125C6.80469 0.868359 6.85039 0.914062 6.90625 0.914062H6.80469V1.82812H7.71875V0.8125C7.71875 0.364355 7.35439 0 6.90625 0H2.84375C2.39561 0 2.03125 0.364355 2.03125 0.8125V1.82812H2.94531V0.914062ZM9.34375 1.82812H0.40625C0.181543 1.82812 0 2.00967 0 2.23438V2.64062C0 2.69648 0.0457031 2.74219 0.101562 2.74219H0.868359L1.18193 9.38184C1.20225 9.81475 1.56025 10.1562 1.99316 10.1562H7.75684C8.19102 10.1562 8.54775 9.81602 8.56807 9.38184L8.88164 2.74219H9.64844C9.7043 2.74219 9.75 2.69648 9.75 2.64062V2.23438C9.75 2.00967 9.56846 1.82812 9.34375 1.82812ZM7.65908 9.24219H2.09092L1.78369 2.74219H7.96631L7.65908 9.24219Z" fill="white"/>
</svg>
