<svg width="28" height="28" viewBox="0 0 28 28" fill="none" xmlns="http://www.w3.org/2000/svg">
<path d="M27.7239 23.4147C23.6166 15.9116 19.5076 8.40843 15.3995 0.9053C15.2625 0.645633 15.0572 0.428278 14.8058 0.276663C14.5544 0.125048 14.2664 0.0449219 13.9728 0.0449219C13.6792 0.0449219 13.3912 0.125048 13.1398 0.276663C12.8884 0.428278 12.6831 0.645633 12.5461 0.9053C8.43842 8.40843 4.32724 15.9116 0.221735 23.4147C-0.413952 24.5736 0.396298 26.076 1.64711 26.076H26.3002C26.9932 26.076 27.4587 25.7028 27.7015 25.1966C28.0069 24.7145 28.0887 24.0744 27.7256 23.4138" fill="#FFDD15"/>
<path d="M12.6509 15.084L12.2619 9.28191C12.1893 8.15184 12.1543 7.33984 12.1543 6.84722C12.1543 6.17609 12.3293 5.65416 12.6802 5.27747C13.0324 4.90297 13.4952 4.71484 14.0692 4.71484C14.7618 4.71484 15.2269 4.95591 15.4596 5.43497C15.6945 5.91709 15.8135 6.60922 15.8135 7.51353C15.8135 8.04509 15.7847 8.58672 15.7269 9.13578L15.2063 15.1072C15.1499 15.8186 15.0295 16.3637 14.8445 16.743C14.6581 17.1241 14.351 17.3122 13.9218 17.3122C13.4878 17.3122 13.1824 17.1289 13.0153 16.7623C12.8434 16.3943 12.723 15.8348 12.6509 15.084ZM13.9949 23.054C13.5027 23.054 13.0735 22.8956 12.7055 22.5758C12.3376 22.2573 12.1543 21.811 12.1543 21.2379C12.1543 20.7378 12.3293 20.3104 12.6802 19.96C13.0324 19.6073 13.4615 19.4323 13.9712 19.4323C14.4809 19.4323 14.9132 19.6073 15.2737 19.96C15.6302 20.3104 15.8135 20.7378 15.8135 21.2379C15.8135 21.8023 15.6302 22.2477 15.2684 22.5697C14.9206 22.8866 14.4654 23.0597 13.9949 23.054Z" fill="#1F2E35"/>
</svg>
