<svg width="64" height="64" fill="#747474" viewBox="0 0 64 64" xmlns="http://www.w3.org/2000/svg">
	<mask id="mask0" mask-type="alpha" maskUnits="userSpaceOnUse" x="0" y="0" width="64" height="64">
		<path fill-rule="evenodd" clip-rule="evenodd" d="M32 64C49.6731 64 64 49.6731 64 32C64 14.3269 49.6731 0 32 0C14.3269 0 0 14.3269 0 32C0 49.6731 14.3269 64 32 64Z" fill="white"/>
	</mask>
	<g mask="url(#mask0)">
		<path fill-rule="evenodd" clip-rule="evenodd" d="M32 64C49.6731 64 64 49.6731 64 32C64 14.3269 49.6731 0 32 0C14.3269 0 0 14.3269 0 32C0 49.6731 14.3269 64 32 64Z" fill="#C5CAE9"/>
	</g>
	<path d="M32.0001 36.5332C34.5038 36.5332 36.5335 34.5036 36.5335 31.9999C36.5335 29.4962 34.5038 27.4666 32.0001 27.4666C29.4964 27.4666 27.4668 29.4962 27.4668 31.9999C27.4668 34.5036 29.4964 36.5332 32.0001 36.5332Z" fill="#283593"/>
	<path d="M27.7499 17.8333L25.1574 20.6666H20.6666C19.1083 20.6666 17.8333 21.9416 17.8333 23.4999V40.4999C17.8333 42.0582 19.1083 43.3332 20.6666 43.3332H43.3333C44.8916 43.3332 46.1666 42.0582 46.1666 40.4999V23.4999C46.1666 21.9416 44.8916 20.6666 43.3333 20.6666H38.8424L36.2499 17.8333H27.7499ZM31.9999 39.0832C28.0899 39.0832 24.9166 35.9099 24.9166 31.9999C24.9166 28.0899 28.0899 24.9166 31.9999 24.9166C35.9099 24.9166 39.0833 28.0899 39.0833 31.9999C39.0833 35.9099 35.9099 39.0832 31.9999 39.0832Z" fill="#283593"/>
</svg>